<?xml version="1.0" encoding="utf-8"?>
<!-- Generator: Adobe Illustrator 24.1.2, SVG Export Plug-In . SVG Version: 6.00 Build 0)  -->
<svg version="1.1" id="Capa_1" xmlns="http://www.w3.org/2000/svg" xmlns:xlink="http://www.w3.org/1999/xlink" x="0px" y="0px"
	 viewBox="0 0 16383 16383" style="enable-background:new 0 0 16383 16383;" xml:space="preserve">
<style type="text/css">
	.st0{fill:url(#SVGID_1_);}
	.st1{fill:url(#SVGID_2_);}
	.st2{fill:url(#SVGID_3_);}
	.st3{fill:url(#SVGID_4_);}
	.st4{fill:url(#SVGID_5_);}
	.st5{fill:url(#SVGID_6_);}
	.st6{fill:#9D9D9C;}
	.st7{fill:#336E8E;}
</style>
<radialGradient id="SVGID_1_" cx="8352.4492" cy="8177.9644" r="120.6959" gradientTransform="matrix(51.5926 0 0 57.8499 -419684.6875 -468179.2188)" gradientUnits="userSpaceOnUse">
	<stop  offset="0" style="stop-color:#002239"/>
	<stop  offset="0.0813" style="stop-color:#00263E"/>
	<stop  offset="0.1881" style="stop-color:#00304B"/>
	<stop  offset="0.3093" style="stop-color:#003F60"/>
	<stop  offset="0.441" style="stop-color:#00517B"/>
	<stop  offset="0.5797" style="stop-color:#00669A"/>
	<stop  offset="0.6242" style="stop-color:#006CA4"/>
	<stop  offset="0.8364" style="stop-color:#4D98D3"/>
	<stop  offset="0.8731" style="stop-color:#3E92CD"/>
	<stop  offset="0.9311" style="stop-color:#0083BD"/>
	<stop  offset="1" style="stop-color:#006CA4"/>
</radialGradient>
<path class="st0" d="M9055.81,4524.34c0,0,1561.7-221.97,1798.16-129.48c0,0,2078.61,295.96,2474.54,2108.74
	c0,0,703.86,3193.92-2474.54,3995.54c0,0-2132.03,274.14-3233.39,2811.65c0,0,569.14-2589.68,1854.67-3339.05
	c0,0,321.05-198.35,1338.25-715.27c0,0,857.07-320.39,1483.95-1337.76c0,0,985.33-1627.36-404.17-2719.2
	c0,0-1542.46-1165.35-2952.95-166.48L9055.81,4524.34z"/>
<linearGradient id="SVGID_2_" gradientUnits="userSpaceOnUse" x1="6743.8613" y1="3654.8611" x2="3154.4797" y2="1743.9331">
	<stop  offset="0" style="stop-color:#00537E"/>
	<stop  offset="0.0581" style="stop-color:#005B88"/>
	<stop  offset="0.164" style="stop-color:#006EA1"/>
	<stop  offset="0.3048" style="stop-color:#008FCB"/>
	<stop  offset="0.3758" style="stop-color:#00A1E3"/>
	<stop  offset="0.4412" style="stop-color:#009DDE"/>
	<stop  offset="0.537" style="stop-color:#0092CF"/>
	<stop  offset="0.6514" style="stop-color:#0080B7"/>
	<stop  offset="0.7803" style="stop-color:#006795"/>
	<stop  offset="0.9194" style="stop-color:#004669"/>
	<stop  offset="1" style="stop-color:#00304C"/>
</linearGradient>
<path class="st1" d="M2462.56,3717.78c0,0,164.97-2238.22,2210.59-2127.23c0,0,2771.03-37,1484.5,4069.49
	c0,0,1385.96-998.88,1996.35-1313.34c0,0-280.45-3311.09-2623.01-3440.57c0,0-1550.71-450.09-2441.54,561.11
	C3089.44,1467.24,2418.58,2453.76,2462.56,3717.78z"/>
<linearGradient id="SVGID_3_" gradientUnits="userSpaceOnUse" x1="4150.6953" y1="13023.249" x2="6618.6021" y2="2949.4739">
	<stop  offset="0.0971" style="stop-color:#006CA4"/>
	<stop  offset="0.4229" style="stop-color:#006DA5"/>
	<stop  offset="0.5467" style="stop-color:#0070A7"/>
	<stop  offset="0.6361" style="stop-color:#0076AC"/>
	<stop  offset="0.709" style="stop-color:#007FB2"/>
	<stop  offset="0.7718" style="stop-color:#368BBB"/>
	<stop  offset="0.8276" style="stop-color:#5F9BC6"/>
	<stop  offset="0.8783" style="stop-color:#85AED2"/>
	<stop  offset="0.9251" style="stop-color:#ADC7E1"/>
	<stop  offset="0.9668" style="stop-color:#D8E3F1"/>
	<stop  offset="1" style="stop-color:#FFFFFF"/>
</linearGradient>
<path class="st2" d="M7422.62,14790.6c0,0-3926.26-2145.73-5279.01-6881.14c0,0-1781.67-5586.34,1649.69-6955.17
	c0,0-1979.63,1405.82-659.88,4550.43c0,0,1022.81,2182.73,2672.5,665.92c0,0,1396.76-1270.16,2848.49-1751.1
	c0,0,1143.76-332.96,2282.63-9.79c0,0-2755.56,318.07-3679.39,2426.81C7257.65,6836.56,5640.95,9833.22,7422.62,14790.6z"/>
<linearGradient id="SVGID_4_" gradientUnits="userSpaceOnUse" x1="1049.7483" y1="8413.5684" x2="5993.3726" y2="3585.1082">
	<stop  offset="0.0971" style="stop-color:#006CA4"/>
	<stop  offset="0.3222" style="stop-color:#006EA5"/>
	<stop  offset="0.442" style="stop-color:#0071A8"/>
	<stop  offset="0.537" style="stop-color:#0078AD"/>
	<stop  offset="0.619" style="stop-color:#0C82B4"/>
	<stop  offset="0.6926" style="stop-color:#438FBE"/>
	<stop  offset="0.7602" style="stop-color:#6CA1CA"/>
	<stop  offset="0.8232" style="stop-color:#94B7D8"/>
	<stop  offset="0.8826" style="stop-color:#C0D3E8"/>
	<stop  offset="0.9372" style="stop-color:#F0F4FA"/>
	<stop  offset="0.9534" style="stop-color:#FFFFFF"/>
</linearGradient>
<ellipse class="st3" cx="4510.91" cy="5033.03" rx="932.08" ry="1045.12"/>
<linearGradient id="SVGID_5_" gradientUnits="userSpaceOnUse" x1="2934.9648" y1="6566.5957" x2="-583.3637" y2="4981.4233">
	<stop  offset="0.5515" style="stop-color:#C8191B"/>
	<stop  offset="0.6553" style="stop-color:#C81D1C"/>
	<stop  offset="0.7105" style="stop-color:#CA2720"/>
	<stop  offset="0.7543" style="stop-color:#CC3427"/>
	<stop  offset="0.7921" style="stop-color:#D14633"/>
	<stop  offset="0.826" style="stop-color:#D65F45"/>
	<stop  offset="0.8572" style="stop-color:#DD7B60"/>
	<stop  offset="0.8863" style="stop-color:#E59C83"/>
	<stop  offset="0.9137" style="stop-color:#EFC1AE"/>
	<stop  offset="0.9389" style="stop-color:#F9E7DF"/>
	<stop  offset="0.9534" style="stop-color:#FFFFFF"/>
</linearGradient>
<path class="st4" d="M2858.49,954.29c0,0-2199.63,480.98-2221.61,3489.92c0,0-258.44,4735.37,3874.04,8410.27
	c0,0-3258.17-3973.75-3082.18-8510.42C1428.73,4344.07,1538.73,1755.87,2858.49,954.29z"/>
<linearGradient id="SVGID_6_" gradientUnits="userSpaceOnUse" x1="10989.6113" y1="12222.7783" x2="8067.9907" y2="5778.6938">
	<stop  offset="0.7086" style="stop-color:#C8191B"/>
	<stop  offset="0.858" style="stop-color:#94160F"/>
	<stop  offset="1" style="stop-color:#620F00"/>
</linearGradient>
<path class="st5" d="M7037.71,12879.12c0,0-1011.82-3847.52,703.86-6486.51c0,0,824.85-1245.49,2199.6-1529.13
	c0,0,1648.31-260.3,2389.28,946.45c0,0,1013.11,1896.01-1542.46,3320.37c0,0,2086.86-2303,428.92-3255.63
	c0,0-1429.69-1159.21-3255.37,739.91C7961.54,6614.58,6289.88,8267.13,7037.71,12879.12z"/>
<path class="st6" d="M5212.03,11572c0,0,1165.77,2293.71,2210.59,3218.6c0,0-1253.77-1331.83-1798.16-2756.16
	C5624.46,12034.44,5484.23,12006.7,5212.03,11572z"/>
<g>
	<path class="st7" d="M8465.33,14893.71v513.56c-63.31,33.46-120.03,50.23-170.14,50.23c-173.45,0-314.07-106.65-421.89-319.97
		c-107.82-213.29-161.74-493.84-161.74-841.62c0-322.92,54.41-589.42,163.22-799.5c108.81-210.05,246.31-315.1,412.5-315.1
		c64.62,0,123.97,14.05,178.05,42.12v515.18c-57.37-31.31-111.45-46.98-162.22-46.98c-77.82,0-142.45,58.32-193.88,174.97
		c-51.44,116.64-77.16,265.16-77.16,445.52c0,194.41,25.87,348.06,77.65,460.91c51.76,112.87,120.84,169.29,207.24,169.29
		C8359.15,14942.3,8408.61,14926.11,8465.33,14893.71z"/>
	<path class="st7" d="M9089.51,15457.49c-159.6,0-281.27-100.17-365.01-300.53c-83.76-200.33-125.63-489.51-125.63-867.54
		c0-348.84,42.04-620.74,126.12-815.7c84.08-194.94,201.3-292.42,351.66-292.42c160.25,0,282.74,97.76,367.49,293.23
		c84.73,195.49,127.11,474.67,127.11,837.57c0,362.89-41.72,644.53-125.13,844.86
		C9362.69,15357.32,9243.83,15457.49,9089.51,15457.49z M9078.63,13672.17c-108.16,0-162.23,207.93-162.23,623.73
		c0,267.87,13.68,446.6,41.05,536.24c27.36,89.66,67.1,134.47,119.2,134.47c56.04,0,99.07-44.81,129.09-134.47
		c30-89.63,45.01-265.13,45.01-526.52C9250.75,13883.34,9193.38,13672.17,9078.63,13672.17z"/>
	<path class="st7" d="M9793.82,13241.25h302.69l380.84,1247.44l-10.88-233.29v-1014.15h299.72v2162.78h-307.64l-372.93-1228
		l7.91,268.93v959.08h-299.73V13241.25z"/>
	<path class="st7" d="M11050.09,15363.52v-503.84c94.96,90.72,174.75,136.08,239.39,136.08c37.59,0,67.27-17.01,89.03-51.03
		c21.76-34.02,32.65-79.11,32.65-135.27c0-43.19-8.75-83.69-26.21-121.51c-17.48-37.79-47.65-83.69-90.51-137.7
		c-103.54-129.6-178.55-250.3-225.04-362.09c-46.49-111.78-69.74-236.25-69.74-373.43c0-186.84,35.93-339.12,107.82-456.85
		c71.87-117.71,164.85-176.59,278.95-176.59c84.41,0,168.16,29.71,251.26,89.1v484.4c-89.03-79.92-161.24-119.88-216.63-119.88
		c-36.94,0-66.12,14.86-87.54,44.55c-21.44,29.72-32.15,70.47-32.15,122.31c0,90.72,49.78,192.79,149.37,306.19
		c59.35,66.98,119.52,161.19,180.53,282.7c60.99,121.5,91.5,262.19,91.5,422.02c0,186.86-39.91,341.58-119.69,464.15
		c-79.8,122.6-181.02,183.88-303.68,183.88C11215.61,15460.72,11132.52,15428.32,11050.09,15363.52z"/>
	<path class="st7" d="M12861.31,15404.02h-311.6l-50.45-361.27h-316.54l-52.43,361.27h-305.66l350.17-2162.78h336.33
		L12861.31,15404.02z M12441.89,14653.94c-44.85-321.84-78.49-628.03-100.9-918.58h-3.96c-23.74,299.18-57.05,605.37-99.91,918.58
		H12441.89z"/>
	<path class="st7" d="M13012.65,13241.25h299.73v1662.17h237.4v500.6h-537.13V13241.25z"/>
	<path class="st7" d="M13726.85,13241.25h307.64v1522.86c0,71.28,11.53,127.73,34.62,169.29c23.08,41.59,54.07,62.37,92.98,62.37
		c40.22,0,72.04-22.13,95.46-66.43c23.4-44.27,35.12-105.3,35.12-183.06v-1505.03h305.66v1419.17c0,193.34-15.5,348.31-46.49,464.95
		c-31,116.64-76.66,202.25-137,256.78c-60.34,54.52-144.59,81.81-252.74,81.81c-159.6,0-272.03-66.96-337.31-200.89
		c-65.29-133.91-97.93-360.19-97.93-678.81V13241.25z"/>
	<path class="st7" d="M14869.37,13241.25h279.94c193.88,0,341.27,90.47,442.17,271.36c100.9,180.91,151.35,445.26,151.35,793.02
		c0,263.54-24.9,476.3-74.69,638.3c-49.8,162.01-119.37,279.2-208.72,351.56c-89.37,72.36-188.12,108.54-296.26,108.54h-293.79
		V13241.25z M15169.1,13701.34v1240.96c91-12.96,155.3-65.61,192.89-157.95c37.59-92.34,56.38-244.35,56.38-456.04
		c0-125.28-6.6-231.39-19.79-318.34c-13.2-86.92-32.81-153.9-58.86-200.89c-26.06-46.98-51.44-75.86-76.17-86.67
		C15238.83,13711.62,15207.33,13704.58,15169.1,13701.34z"/>
</g>
</svg>
